PathFileType	4	(X/Y/Z)	D:\telocate\uwb02-Unnamed.trc
DataRate	CameraRate	NumFrames	NumMarkers	Units	OrigDataRate	OrigDataStartFrame	OrigNumFrames
100.00	100.00	      208	0	mm	100.00	1706	      4547
Frame#	Time	
		

1706	17.050	-1492.25183	-1643.45154	1236.23914	
1707	17.060	-1493.30115	-1647.89014	1236.42676	
1708	17.070	-1495.08386	-1651.76648	1236.98145	
1709	17.080	-1495.98438	-1656.54675	1237.18628	
1710	17.090	-1497.10022	-1660.80298	1237.52234	
1711	17.100	-1498.09717	-1665.38354	1237.84204	
1712	17.110	-1499.24280	-1669.72803	1237.75928	
1713	17.120	-1500.34875	-1673.62170	1237.68408	
1714	17.130	-1501.07019	-1677.75696	1237.87720	
1715	17.140	-1501.99792	-1682.43433	1238.23730	
1716	17.150	-1501.96191	-1687.43372	1238.11987	
1717	17.160	-1503.54663	-1693.20068	1238.49268	
1718	17.170	-1504.18396	-1699.64868	1238.44617	
1719	17.180	-1505.26367	-1706.08252	1238.06006	
1720	17.190	-1506.49548	-1712.83142	1237.96021	
1721	17.200	-1507.44312	-1719.20190	1238.17480	
1722	17.210	-1508.58081	-1726.47314	1238.01086	
1723	17.220	-1509.35254	-1732.55725	1236.84192	
1724	17.230	-1510.24219	-1739.49744	1236.68567	
1725	17.240	-1510.90540	-1747.07190	1236.35608	
1726	17.250	-1512.31934	-1753.59937	1236.20837	
1727	17.260	-1512.48425	-1760.84631	1235.45154	
1728	17.270	-1512.98010	-1768.37476	1234.67957	
1729	17.280	-1514.10254	-1774.96545	1234.09448	
1730	17.290	-1515.04150	-1781.63684	1233.85083	
1731	17.300	-1515.32495	-1789.07520	1233.49426	
1732	17.310	-1516.54822	-1795.49268	1232.98462	
1733	17.320	-1517.58044	-1801.39856	1232.89282	
1734	17.330	-1518.24353	-1807.45996	1232.71802	
1735	17.340	-1519.06848	-1813.56140	1232.31958	
1736	17.350	-1519.74829	-1819.10852	1232.49353	
1737	17.360	-1520.40979	-1824.56494	1232.15881	
1738	17.370	-1520.31616	-1830.43726	1231.62708	
1739	17.380	-1518.84424	-1836.11951	1230.96716	
1740	17.390	-1519.02600	-1841.66162	1231.16455	
1741	17.400	-1519.19592	-1847.41797	1231.24170	
1742	17.410	-1519.33813	-1852.65540	1230.50220	
1743	17.420	-1519.50085	-1858.13000	1230.67493	
1744	17.430	-1519.38879	-1864.37122	1230.84253	
1745	17.440	-1520.76697	-1869.41125	1230.87549	
1746	17.450	-1520.34277	-1874.20923	1230.68408	
1747	17.460	-1520.47021	-1879.17529	1230.29614	
1748	17.470	-1520.68469	-1883.69385	1230.46155	
1749	17.480	-1519.97754	-1889.21680	1229.98535	
1750	17.490	-1519.79370	-1893.34326	1230.19788	
1751	17.500	-1518.62280	-1898.41077	1230.14502	
1752	17.510	-1517.56750	-1903.86340	1230.05615	
1753	17.520	-1517.06323	-1908.31226	1230.27332	
1754	17.530	-1516.72937	-1912.83508	1230.61768	
1755	17.540	-1515.67017	-1918.53564	1230.94031	
1756	17.550	-1515.08154	-1923.46411	1231.16199	
1757	17.560	-1514.26099	-1928.51050	1231.00586	
1758	17.570	-1512.09766	-1932.91614	1230.94263	
1759	17.580	-1511.65552	-1937.47510	1231.84656	
1760	17.590	-1510.03931	-1942.38184	1232.08972	
1761	17.600	-1508.60669	-1946.93201	1232.21362	
1762	17.610	-1508.49695	-1950.88538	1232.50391	
1763	17.620	-1506.47095	-1956.52869	1232.38184	
1764	17.630	-1505.53235	-1961.84766	1232.72742	
1765	17.640	-1504.75708	-1966.89038	1232.76550	
1766	17.650	-1503.54333	-1971.63892	1232.65698	
1767	17.660	-1504.11328	-1977.02612	1232.97266	
1768	17.670	-1501.93738	-1982.51453	1232.28821	
1769	17.680	-1500.10815	-1988.10107	1232.26062	
1770	17.690	-1498.86646	-1993.56763	1232.25500	
1771	17.700	-1497.47083	-1998.64368	1231.99585	
1772	17.710	-1495.51868	-2003.82227	1231.61438	
1773	17.720	-1494.73755	-2008.93445	1231.66064	
1774	17.730	-1493.67529	-2014.34070	1231.92188	
1775	17.740	-1492.00281	-2020.08301	1231.69324	
1776	17.750	-1491.62292	-2024.62244	1231.66479	
1777	17.760	-1492.20288	-2029.58545	1231.83130	
1778	17.770	-1489.42444	-2035.65918	1231.41101	
1779	17.780	-1489.29895	-2041.43542	1231.28796	
1780	17.790	-1488.00232	-2047.72192	1231.31848	
1781	17.800	-1487.16956	-2053.16260	1231.10278	
1782	17.810	-1486.58557	-2057.89868	1230.87769	
1783	17.820	-1485.42566	-2063.22388	1231.12012	
1784	17.830	-1482.25928	-2069.16333	1230.31763	
1785	17.840	-1481.63660	-2073.62622	1231.46729	
1786	17.850	-1481.67993	-2078.45972	1231.50708	
1787	17.860	-1480.32068	-2083.68066	1232.01501	
1788	17.870	-1479.20984	-2087.74536	1232.98938	
1789	17.880	-1478.13879	-2092.63940	1233.25403	
1790	17.890	-1475.99963	-2097.74756	1234.06018	
1791	17.900	-1474.91821	-2101.82690	1234.75598	
1792	17.910	-1473.59717	-2106.20850	1235.57813	
1793	17.920	-1469.55347	-2111.85352	1236.33984	
1794	17.930	-1473.48560	-2115.40112	1235.61292	
1795	17.940	-1472.20825	-2119.06714	1236.07959	
1796	17.950	-1470.79224	-2123.37036	1236.63940	
1797	17.960	-1466.90320	-2128.23413	1237.45239	
1798	17.970	-1465.09900	-2131.83398	1238.15027	
1799	17.980	-1464.31763	-2136.44214	1238.54626	
1800	17.990	-1462.62695	-2141.25806	1239.41211	
1801	18.000	-1461.40869	-2145.41309	1239.64233	
1802	18.010	-1461.84045	-2149.04150	1240.55774	
1803	18.020	-1460.92688	-2152.93970	1240.93030	
1804	18.030	-1459.20569	-2157.68506	1241.63940	
1805	18.040	-1456.59314	-2160.68384	1242.32324	
1806	18.050	-1454.77869	-2165.55249	1242.79309	
1807	18.060	-1452.78149	-2169.91431	1242.62305	
1808	18.070	-1451.66833	-2173.82031	1242.86194	
1809	18.080	-1449.91736	-2178.29199	1243.17383	
1810	18.090	-1447.89368	-2184.07544	1242.81506	
1811	18.100	-1446.86719	-2187.71826	1242.45935	
1812	18.110	-1445.79822	-2191.15186	1242.60327	
1813	18.120	-1444.60608	-2196.38306	1242.65491	
1814	18.130	-1444.06616	-2199.78247	1242.37585	
1815	18.140	-1443.34851	-2204.46899	1242.68701	
1816	18.150	-1443.08228	-2209.01343	1242.64417	
1817	18.160	-1442.31946	-2212.24463	1242.66943	
1818	18.170	-1441.29224	-2216.39209	1243.00354	
1819	18.180	-1441.14539	-2220.83789	1243.34497	
1820	18.190	-1440.58850	-2224.09106	1242.80176	
1821	18.200	-1439.96985	-2228.38843	1242.94666	
1822	18.210	-1439.07581	-2232.09058	1243.23376	
1823	18.220	-1438.44690	-2234.88428	1242.94617	
1824	18.230	-1437.72058	-2239.04443	1243.50183	
1825	18.240	-1437.46375	-2241.43921	1243.19958	
1826	18.250	-1436.85413	-2245.55225	1243.37402	
1827	18.260	-1433.75623	-2248.03589	1243.54871	
1828	18.270	-1435.19641	-2251.66797	1243.78174	
1829	18.280	-1434.01355	-2253.90869	1243.96216	
1830	18.290	-1433.42712	-2257.36426	1244.38391	
1831	18.300	-1432.49536	-2259.43848	1244.44275	
1832	18.310	-1431.57922	-2261.82422	1244.54492	
1833	18.320	-1430.99182	-2265.68945	1244.89636	
1834	18.330	-1430.28296	-2268.00195	1245.02002	
1835	18.340	-1429.58057	-2271.44971	1244.98572	
1836	18.350	-1428.34009	-2274.16211	1245.52161	
1837	18.360	-1427.89185	-2277.00146	1246.12524	
1838	18.370	-1426.85083	-2279.19067	1246.01660	
1839	18.380	-1426.48511	-2282.74902	1246.33362	
1840	18.390	-1425.01196	-2284.59033	1246.53845	
1841	18.400	-1424.84485	-2287.69067	1247.28577	
1842	18.410	-1424.58264	-2288.97095	1247.12500	
1843	18.420	-1423.67590	-2291.36792	1247.61072	
1844	18.430	-1422.95129	-2294.68433	1247.95276	
1845	18.440	-1422.99194	-2296.68604	1248.12219	
1846	18.450	-1422.77588	-2299.25073	1248.66040	
1847	18.460	-1419.75488	-2302.30347	1249.12524	
1848	18.470	-1419.74915	-2304.30103	1249.32129	
1849	18.480	-1419.32300	-2307.87402	1249.95300	
1850	18.490	-1418.82544	-2309.88501	1250.27991	
1851	18.500	-1418.80115	-2312.67529	1250.68994	
1852	18.510	-1418.76257	-2315.13647	1250.44019	
1853	18.520	-1418.58923	-2317.28882	1250.32202	
1854	18.530	-1418.57751	-2320.17480	1250.81042	
1855	18.540	-1418.38953	-2322.46802	1250.36658	
1856	18.550	-1418.48730	-2325.73413	1250.83972	
1857	18.560	-1419.35510	-2328.29419	1250.77600	
1858	18.570	-1419.19678	-2330.65796	1250.46692	
1859	18.580	-1419.15198	-2334.01099	1250.74219	
1860	18.590	-1419.54712	-2336.91528	1250.51880	
1861	18.600	-1420.00085	-2341.01636	1251.11877	
1862	18.610	-1420.62000	-2343.94678	1250.33655	
1863	18.620	-1421.55603	-2348.20703	1250.76807	
1864	18.630	-1422.89282	-2351.64453	1250.37671	
1865	18.640	-1423.18494	-2355.78809	1250.51721	
1866	18.650	-1424.36938	-2359.41309	1249.91211	
1867	18.660	-1425.55298	-2362.40747	1249.57080	
1868	18.670	-1426.38477	-2364.83057	1249.17419	
1869	18.680	-1427.14014	-2368.70459	1249.31921	
1870	18.690	-1428.36633	-2371.28491	1249.18396	
1871	18.700	-1428.94543	-2374.49683	1249.12842	
1872	18.710	-1429.82251	-2377.02759	1249.23621	
1873	18.720	-1431.20752	-2379.46265	1248.66272	
1874	18.730	-1435.24670	-2383.17358	1249.26733	
1875	18.740	-1435.57825	-2384.56812	1249.31152	
1876	18.750	-1436.77344	-2388.15601	1249.50964	
1877	18.760	-1437.64368	-2390.18042	1249.37817	
1878	18.770	-1438.62805	-2392.23193	1250.10986	
1879	18.780	-1439.84155	-2395.21875	1250.23254	
1880	18.790	-1440.40540	-2396.50049	1250.18567	
1881	18.800	-1440.99036	-2398.13354	1250.23730	
1882	18.810	-1441.47339	-2399.09741	1250.32068	
1883	18.820	-1442.50256	-2402.29395	1250.68921	
1884	18.830	-1443.72522	-2403.82349	1250.96313	
1885	18.840	-1443.86853	-2405.10107	1251.30933	
1886	18.850	-1444.12256	-2406.70825	1251.61694	
1887	18.860	-1444.55371	-2409.29810	1252.40771	
1888	18.870	-1445.04846	-2410.65479	1252.41882	
1889	18.880	-1445.85999	-2412.29858	1252.84290	
1890	18.890	-1446.39954	-2414.29883	1252.90784	
1891	18.900	-1447.08704	-2416.88135	1252.86047	
1892	18.910	-1447.16455	-2418.24316	1253.12988	
1893	18.920	-1447.68835	-2419.53198	1252.97961	
1894	18.930	-1448.33838	-2421.39893	1252.89026	
1895	18.940	-1448.57703	-2423.87085	1252.74438	
1896	18.950	-1449.05859	-2425.25903	1252.90564	
1897	18.960	-1450.08215	-2426.61792	1253.09875	
1898	18.970	-1449.93420	-2429.75903	1253.11707	
1899	18.980	-1450.68945	-2432.08203	1253.27466	
1900	18.990	-1451.12903	-2434.09717	1253.25110	
1901	19.000	-1451.80798	-2436.95679	1253.60767	
1902	19.010	-1452.18628	-2437.92944	1253.47266	
1903	19.020	-1452.78564	-2439.47070	1253.32263	
1904	19.030	-1453.75269	-2441.12793	1253.43018	
1905	19.040	-1454.62939	-2443.80249	1253.38599	
1906	19.050	-1455.16492	-2445.23389	1253.36475	
1907	19.060	-1456.01697	-2446.66919	1253.20740	
1908	19.070	-1456.68738	-2448.47852	1253.11230	
1909	19.080	-1457.30261	-2450.60181	1253.22107	
1910	19.090	-1458.54822	-2452.85205	1253.44250	
1911	19.100	-1459.62720	-2454.58301	1253.24414	
1912	19.110	-1461.11694	-2456.38867	1252.97034	
1913	19.120	-1459.43896	-2458.57520	1253.40918	
